#define directory_width 16
#define directory_height 16
static unsigned char directory_bits[] = {
  0x00, 0x00,
  0x7c, 0x00,
  0x82, 0x00,
  0x01, 0xff,
  0x01, 0xc0,
  0x01, 0xc0,
  0x01, 0xc0,
  0x01, 0xc0,
  0x01, 0xc0,
  0x01, 0xc0,
  0x01, 0xc0,
  0x01, 0xc0,
  0x01, 0xc0,
  0x01, 0xc0,
  0xff, 0xff,
  0xff, 0xff,
};
