<?xml version="1.0" encoding="UTF-8" standalone="no"?>
<!-- Created with Inkscape (http://www.inkscape.org/) -->

<svg
   width="490.58551"
   height="707.84619"
   viewBox="0 0 129.80075 187.2843"
   version="1.1"
   id="svg5"
   xmlns="http://www.w3.org/2000/svg"
   xmlns:svg="http://www.w3.org/2000/svg">
  <defs
     id="defs2" />
  <g
     id="layer2"
     style="display:inline"
     transform="translate(-28.188727,-61.857867)">
    <path
       style="fill:#f2ca30;fill-opacity:1;stroke:#1e1812;stroke-width:2.5;stroke-linecap:butt;stroke-linejoin:miter;stroke-miterlimit:4;stroke-dasharray:none;stroke-opacity:1"
       d="m 132.50481,122.52121 14.11092,-6.21535 a 0.27309631,0.27309631 38.930572 0 1 0.37757,0.305 l -2.88469,14.01227 a 0.56849154,0.56849154 58.684689 0 0 0.40263,0.66182 l 12.03233,3.3904 a 0.31165079,0.31165079 75.240695 0 1 0.13682,0.51936 l -9.80405,9.89175 c -0.20573,0.20757 -0.60818,0.40047 -0.89801,0.43791 -28.50192,3.68184 -28.52256,55.39278 4.0737,62.33191 0.28584,0.0609 0.60036,0.32834 0.70142,0.60256 l 4.67985,12.69857 a 0.37454707,0.37454707 124.47835 0 1 -0.34612,0.50403 l -12.53658,0.17783 a 0.48288737,0.48288737 131.56908 0 0 -0.47335,0.53373 l 1.24447,11.7434 a 0.24772173,0.24772173 148.86491 0 1 -0.38408,0.23201 l -10.36731,-6.9348 a 0.28698193,0.28698193 152.25116 0 0 -0.44652,0.23491 l -0.1884,14.92136 a 0.20490598,0.20490598 159.55579 0 1 -0.35809,0.13348 l -8.99829,-10.13081 a 0.26374919,0.26374919 164.88095 0 0 -0.45577,0.12313 l -2.6249,13.04902 a 0.2111679,0.2111679 169.61886 0 1 -0.38584,0.0707 l -7.87859,-12.54205 a 0.26512447,0.26512447 174.47593 0 0 -0.47187,0.0456 l -5.33395,13.83198 a 0.22112882,0.22112882 178.4087 0 1 -0.4079,0.0113 l -5.497801,-12.19304 a 0.30427677,0.30427677 5.6289453 0 0 -0.525013,-0.0518 l -9.209235,12.89738 a 0.19849958,0.19849958 14.966393 0 1 -0.359099,-0.096 l -1.51687,-15.48263 a 0.34890012,0.34890012 27.80287 0 0 -0.515315,-0.27173 l -15.556574,8.55184 a 0.20770126,0.20770126 39.770963 0 1 -0.297207,-0.24737 l 4.51085,-13.60716 a 0.2615556,0.2615556 44.64283 0 0 -0.33366,-0.32953 l -18.17784,6.27865 a 0.17771184,0.17771184 52.381248 0 1 -0.205664,-0.26688 l 8.987466,-13.41646 a 0.19958377,0.19958377 54.482256 0 0 -0.216979,-0.30399 l -13.885479,3.68243 a 0.22219928,0.22219928 52.369297 0 1 -0.250176,-0.3245 l 6.235066,-10.97946 a 0.23260809,0.23260809 53.320618 0 0 -0.254397,-0.34156 l -14.80724,3.405 a 0.15580237,0.15580237 60.643683 0 1 -0.146541,-0.26053 l 10.483436,-10.76618 a 0.23488514,0.23488514 68.173044 0 0 -0.159642,-0.39859 l -15.545081,-0.57229 a 0.17477089,0.17477089 73.831264 0 1 -0.09242,-0.31878 l 10.188775,-6.98839 a 0.21677502,0.21677502 77.830765 0 0 -0.08457,-0.39218 l -15.48661,-2.76064 a 0.17594258,0.17594258 81.715955 0 1 -0.04811,-0.33043 l 13.508791,-6.78698 a 0.19902204,0.19902204 83.936022 0 0 -0.03936,-0.37048 l -16.149471,-4.19083 a 0.181963,0.181963 85.571128 0 1 -0.02658,-0.34312 l 14.736847,-6.37882 a 0.25918074,0.25918074 92.689889 0 0 0.02185,-0.46501 l -10.481139,-5.75849 a 0.21172659,0.21172659 96.978054 0 1 0.04776,-0.39024 l 11.321752,-2.99746 a 0.27673212,0.27673212 102.77874 0 0 0.10848,-0.4783 l -9.883041,-8.40709 a 0.21587517,0.21587517 108.19328 0 1 0.124816,-0.37978 l 12.544182,-0.87715 a 0.24668206,0.24668206 110.99369 0 0 0.160203,-0.41748 l -8.78327,-9.09129 a 0.1879416,0.1879416 116.43398 0 1 0.15768,-0.31717 l 13.001718,1.56893 a 0.2718716,0.2718716 124.07359 0 0 0.270965,-0.40061 l -6.142089,-11.20318 a 0.23859225,0.23859225 126.99666 0 1 0.261776,-0.34743 l 12.591345,2.84378 a 0.30773734,0.30773734 132.90704 0 0 0.362223,-0.3897 l -3.828324,-12.5904 a 0.26005768,0.26005768 136.91552 0 1 0.34092,-0.31885 l 11.850622,4.48833 a 0.27688131,0.27688131 138.3642 0 0 0.366708,-0.32598 L 65.344933,113.5131 a 0.20353632,0.20353632 144.94606 0 1 0.311021,-0.21821 l 13.797178,9.27395 a 0.29710082,0.29710082 153.21959 0 0 0.46255,-0.23345 l 0.542233,-12.2638 a 0.24842033,0.24842033 157.38366 0 1 0.415162,-0.17295 l 9.088136,8.25093 a 0.23959778,0.23959778 156.5959 0 0 0.400618,-0.17339 l 0.22268,-13.34297 a 0.18294698,0.18294698 161.88449 0 1 0.328669,-0.10752 l 8.003632,10.54931 a 0.34372318,0.34372318 175.81883 0 0 0.574968,-0.042 l 5.45223,-9.90742 a 0.21516928,0.21516928 6.6971926 0 1 0.39592,0.0465 l 2.79536,10.12747 a 0.28067408,0.28067408 12.511418 0 0 0.48413,0.10743 l 8.81859,-10.34233 a 0.20479273,0.20479273 19.296312 0 1 0.36052,0.12623 l 0.45819,14.10445 a 0.21342528,0.21342528 20.104753 0 0 0.37174,0.13608 l 11.062,-12.2554 a 0.24188086,0.24188086 17.505094 0 1 0.4196,0.13234 l 1.84544,14.90105 a 0.39362617,0.39362617 29.584164 0 0 0.54931,0.31185 z"
       id="path880" />
    <path
       d="m 120.85084,140.03351 8.93651,-9.52691 -1.24582,11.81984 z"
       id="path4472"
       style="fill:#f2ca30"
       class="UnoptimicedTransforms" />
    <path
       style="fill:#1e1812;fill-opacity:1;fill-rule:nonzero;stroke:none;stroke-width:2.5;stroke-linecap:butt;stroke-linejoin:miter;stroke-miterlimit:4;stroke-dasharray:none;stroke-opacity:1"
       d="m 122.5115,136.43604 c -2.57234,2.74229 -1.66066,3.59747 -1.66066,3.59747 0,0 0.91168,0.85518 3.48403,-1.88711 l 6.00213,-6.39867 c 0,0 -1.06881,0.29947 -1.06881,0.29947 0,0 -0.11082,-0.0373 -0.11082,-0.0373 0,0 -0.11692,-0.0551 -0.11692,-0.0551 0,0 -0.12208,-0.0781 -0.12208,-0.0781 0,0 -0.12487,-0.10834 -0.12487,-0.10834 0,0 -0.12185,-0.14776 -0.12185,-0.14776 0,0 -0.10636,-0.19614 -0.10636,-0.19614 0,0 -0.0693,-0.24582 -0.0693,-0.24582 0,0 -0.007,-0.2768 -0.007,-0.2768 l -0.83325,7.90551 c -0.3571,3.38807 0.88601,3.5191 0.88601,3.5191 0,0 1.24311,0.13103 1.60022,-3.25705 l 0.83325,-7.90551 c 0.14275,-1.3544 -1.52962,-2.11981 -2.46136,-1.12652 z"
       id="path878"
       class="UnoptimicedTransforms" />
    <path
       d="m 99.720291,130.88261 2.795939,-11.90693 4.48195,11.62516 z"
       id="path4516"
       style="fill:#f2ca30"
       class="UnoptimicedTransforms" />
    <path
       style="fill:#1e1812;fill-opacity:1;fill-rule:nonzero;stroke:none;stroke-width:2.5;stroke-linecap:butt;stroke-linejoin:miter;stroke-miterlimit:4;stroke-dasharray:none;stroke-opacity:1"
       d="m 99.269592,127.33388 c -0.766202,3.26298 0.450699,3.54873 0.450699,3.54873 0,0 1.216899,0.28575 1.983099,-2.97724 l 1.78781,-7.61363 c 0,0 -0.0144,0.0499 -0.0144,0.0499 0,0 -0.004,0.009 -0.003,0.009 3.6e-4,-7.9e-4 0.001,-0.002 0.003,-0.006 0.001,-0.003 0.003,-0.006 0.005,-0.008 0.001,-0.002 0.003,-0.004 0.003,-0.005 4.8e-4,-7.2e-4 -8.1e-4,0.001 -8.1e-4,0.001 0,0 -0.007,0.009 -0.007,0.009 0,0 -0.014,0.0164 -0.014,0.0164 0,0 -1.92246,-0.4382 -1.92246,-0.43822 l 3.00411,7.792 c 1.28748,3.33942 2.4538,2.88976 2.4538,2.88976 0,0 1.16632,-0.44966 -0.12116,-3.78909 l -3.00412,-7.792 c -0.9302,-2.41265 -2.59716,-0.22937 -2.8155,0.70049 z"
       id="path876"
       class="UnoptimicedTransforms" />
    <path
       d="m 84.032889,143.50145 0.484737,-16.78794 c 0,0 9.354431,8.81834 10.344174,9.53089 z"
       id="path4574"
       style="fill:#f2ca30"
       class="UnoptimicedTransforms" />
    <path
       style="fill:#1e1812;fill-opacity:1;fill-rule:nonzero;stroke:none;stroke-width:2.5;stroke-linecap:butt;stroke-linejoin:miter;stroke-miterlimit:4;stroke-dasharray:none;stroke-opacity:1"
       d="m 82.919667,138.74636 c -0.136257,4.71901 1.113222,4.75509 1.113222,4.75509 0,0 1.249479,0.0361 1.385737,-4.68294 l 0.317934,-11.01103 c 0,0 -4.81e-4,0.008 2.54e-4,9.2e-4 7.02e-4,-0.007 0.002,-0.0164 0.004,-0.0288 0.0018,-0.0112 0.004,-0.023 0.0066,-0.0355 0.0023,-0.0112 0.0048,-0.0219 0.0073,-0.0319 0.0023,-0.009 0.0044,-0.0168 0.0064,-0.0234 0.0017,-0.006 0.0031,-0.01 0.0039,-0.0125 7.22e-4,-0.002 1.89e-4,-6.5e-4 1.89e-4,-6.5e-4 0,0 -0.0048,0.0113 -0.0048,0.0113 0,0 -1.630911,0.36558 -1.630919,0.36558 0,0 0.08681,0.094 0.302674,0.29699 1.582186,1.48758 5.247204,4.92571 7.586854,7.05899 0.973832,0.90027 1.677021,1.15637 2.19182,1.12751 0.471987,-0.0265 0.651044,-0.29163 0.651044,-0.29163 0,0 0.170456,-0.25471 0.119164,-0.69165 -0.04482,-0.38184 -0.287925,-1.10024 -1.277614,-1.99159 -2.325781,-2.12063 -5.978184,-5.54691 -7.558793,-7.03301 -0.211446,-0.1988 -0.26317,-0.30817 -0.612054,-0.54475 -1.747193,-1.18477 -2.276631,1.11913 -2.294902,1.75192 z"
       id="path874"
       class="UnoptimicedTransforms" />
    <path
       d="M 70.32799,157.40005 C 69.849578,156.78074 58.819084,143.58468 58.819084,143.58468 l 14.784305,-1.21278 z"
       id="path4706"
       style="fill:#f2ca30"
       class="UnoptimicedTransforms" />
    <path
       style="fill:#1e1812;fill-opacity:1;fill-rule:nonzero;stroke:none;stroke-width:2.5;stroke-linecap:butt;stroke-linejoin:miter;stroke-miterlimit:4;stroke-dasharray:none;stroke-opacity:1"
       d="m 67.303592,155.70338 c 1.032194,1.2443 1.82159,1.6583 2.285506,1.76746 0.491649,0.11569 0.738892,-0.0708 0.738892,-0.0708 0,0 0.251736,-0.19006 0.239375,-0.7076 -0.01298,-0.54343 -0.304127,-1.34392 -1.34179,-2.58781 -2.648722,-3.18425 -7.083064,-8.4923 -8.768897,-10.50974 -0.0015,-0.002 -0.0066,-0.008 -0.015,-0.0194 -0.0073,-0.01 -0.01575,-0.0217 -0.02492,-0.0352 -0.0082,-0.0121 -0.0164,-0.0247 -0.02434,-0.0375 -0.0072,-0.0115 -0.01373,-0.0226 -0.01966,-0.033 -0.0053,-0.009 -0.0098,-0.0176 -0.01346,-0.0247 -0.0033,-0.006 -0.0056,-0.0111 -0.0071,-0.0142 0,0 -0.0012,-0.003 -0.0012,-0.003 0,0 0.0037,0.01 0.0037,0.01 0,0 -0.719856,1.30801 -0.719867,1.30801 0,0 0.04123,0.0226 0.341223,-0.002 l 9.61066,-0.78838 c 4.118854,-0.33787 4.016658,-1.58369 4.016658,-1.58369 0,0 -0.102196,-1.24582 -4.221051,-0.90794 l -9.61066,0.78838 c -0.289092,0.0237 -0.68396,0.0359 -0.966539,0.13536 -1.783995,0.62766 -0.593532,2.41931 -0.266846,2.81026 1.685642,2.01721 6.118457,7.32344 8.765299,10.50542 z"
       id="path872"
       class="UnoptimicedTransforms" />
    <path
       d="m 67.614169,194.32972 -14.173874,-5.92341 14.552969,-4.06064 z"
       id="path5244"
       style="fill:#f2ca30"
       class="UnoptimicedTransforms" />
    <path
       style="fill:#1e1812;fill-opacity:1;fill-rule:nonzero;stroke:none;stroke-width:2.5;stroke-linecap:butt;stroke-linejoin:miter;stroke-miterlimit:4;stroke-dasharray:none;stroke-opacity:1"
       d="m 63.172963,193.82846 c 3.959215,1.6546 4.441206,0.50126 4.441206,0.50126 0,0 0.481991,-1.15334 -3.477224,-2.80793 l -9.238167,-3.86073 c 0,0 0.04965,0.0238 0.04965,0.0238 0,0 0.0084,0.005 0.0075,0.004 -0.0011,-7.4e-4 -0.0031,-0.002 -0.0065,-0.005 -0.0029,-0.002 -0.0059,-0.005 -0.0087,-0.007 -0.0025,-0.002 -0.0043,-0.004 -0.0053,-0.005 -8.34e-4,-7.9e-4 5.29e-4,5.8e-4 5.29e-4,5.8e-4 0,0 0.0073,0.008 0.0073,0.008 0,0 0.01411,0.0172 0.01411,0.0172 0,0 -0.671436,1.76951 -0.671451,1.76951 l 9.83029,-2.74289 c 4.212982,-1.17553 3.877033,-2.37954 3.877033,-2.37954 0,0 -0.335949,-1.20401 -4.54893,-0.0285 l -9.830305,2.7429 c -2.296548,0.64082 -0.533331,2.55071 0.320766,2.90764 z"
       id="path870"
       class="UnoptimicedTransforms" />
    <path
       d="m 64.029118,176.62408 c -1.025858,-0.20832 -13.167801,-9.13259 -13.167801,-9.13259 l 15.20458,-3.50673 z"
       id="path5008"
       style="fill:#f2ca30"
       class="UnoptimicedTransforms" />
    <path
       style="fill:#1e1812;fill-opacity:1;fill-rule:nonzero;stroke:none;stroke-width:2.5;stroke-linecap:butt;stroke-linejoin:miter;stroke-miterlimit:4;stroke-dasharray:none;stroke-opacity:1"
       d="m 60.815978,176.12939 c 0.759729,0.51374 1.362181,0.76529 1.83759,0.86385 0,0 10e-7,0 10e-7,0 0.5178,0.0942 0.883971,0.0979 1.150887,-0.0738 0.208548,-0.13411 0.224662,-0.29537 0.224662,-0.29537 0,0 0.0097,-0.14716 -0.01136,-0.35801 -0.0096,-0.0957 -0.0024,-0.59322 -0.349279,-0.92513 0,0 0,0 0,0 -0.266337,-0.35139 -0.716284,-0.78588 -1.452978,-1.28311 -3.000426,-2.02705 -7.817872,-5.52915 -9.762962,-6.95042 0,0 0.0047,0.004 -0.0011,-0.001 -0.0055,-0.005 -0.01324,-0.0116 -0.0227,-0.0206 -0.0085,-0.008 -0.01723,-0.0167 -0.02631,-0.0261 -0.0081,-0.008 -0.01569,-0.0166 -0.0227,-0.0245 -0.0063,-0.007 -0.01164,-0.0134 -0.01604,-0.0188 -0.004,-0.005 -0.0067,-0.008 -0.0083,-0.0106 -0.0014,-0.002 -5.65e-4,-7.1e-4 -5.65e-4,-7.1e-4 0,0 0.0065,0.0102 0.0065,0.0102 0,0 -0.593399,1.5393 -0.593409,1.5393 0,0 0.116739,-0.0162 0.40556,-0.0828 l 9.921324,-2.28822 c 4.251996,-0.98067 3.971075,-2.19869 3.971075,-2.19869 0,0 -0.280921,-1.21802 -4.532917,-0.23736 l -9.921323,2.28822 c -0.284775,0.0657 -0.761377,0.19271 -0.810813,0.21345 -1.883615,0.79018 -0.317108,2.51603 0.176743,2.87689 1.94914,1.42423 6.798966,4.95003 9.838391,7.00343 z"
       id="path868"
       class="UnoptimicedTransforms" />
    <path
       d="m 83.431599,204.77603 -16.792416,5.86609 6.656972,-10.56864 z"
       id="path5310"
       style="fill:#f2ca30"
       class="UnoptimicedTransforms" />
    <path
       style="fill:#1e1812;fill-opacity:1;fill-rule:nonzero;stroke:none;stroke-width:2.5;stroke-linecap:butt;stroke-linejoin:miter;stroke-miterlimit:4;stroke-dasharray:none;stroke-opacity:1"
       d="m 79.105845,207.61122 c 4.737987,-1.65512 4.325754,-2.83519 4.325754,-2.83519 0,0 -0.412233,-1.18007 -5.15022,0.47505 l -11.055304,3.86195 c 0,0 0.05298,-0.0155 0.05298,-0.0155 0,0 0.0095,-0.002 0.0085,-0.002 -0.0013,1.9e-4 -0.0038,5e-4 -0.0082,8.2e-4 -0.0038,2.9e-4 -0.0076,4.7e-4 -0.01128,5.5e-4 -0.0033,8e-5 -0.0057,5e-5 -0.0072,1e-5 -0.0012,-3e-5 7.23e-4,7e-5 7.23e-4,7e-5 0,0 0.01079,0.001 0.01079,0.001 0,0 0.02202,0.003 0.02202,0.003 0,0 0.68449,1.75877 0.684482,1.75879 l 4.462461,-7.08463 c 1.912484,-3.03626 0.854812,-3.70247 0.854812,-3.70247 0,0 -1.057672,-0.66621 -2.970155,2.37006 l -4.46247,7.08464 c -1.270449,2.01703 1.311883,2.25069 2.187012,1.94499 z"
       id="path866"
       class="UnoptimicedTransforms" />
    <path
       d="M 99.490688,210.30071 87.738336,222.72889 89.687508,206.905 Z"
       id="path5584"
       style="fill:#f2ca30"
       class="UnoptimicedTransforms" />
    <path
       style="fill:#1e1812;fill-opacity:1;fill-rule:nonzero;stroke:none;stroke-width:2.5;stroke-linecap:butt;stroke-linejoin:miter;stroke-miterlimit:4;stroke-dasharray:none;stroke-opacity:1"
       d="m 97.091362,214.65732 c 3.307558,-3.49777 2.399326,-4.35661 2.399326,-4.35661 0,0 -0.908233,-0.85884 -4.215792,2.63892 l -7.717638,8.16145 c 0,0 0.03894,-0.0372 0.03894,-0.0372 0,0 0.0078,-0.006 0.0072,-0.006 -8.71e-4,6.2e-4 -0.0026,0.002 -0.0061,0.004 -0.0029,0.002 -0.0059,0.004 -0.0089,0.005 -0.0027,0.001 -0.0046,0.002 -0.0058,0.003 -8.97e-4,4.4e-4 0.001,-4.3e-4 0.001,-4.3e-4 0,0 0.01011,-0.004 0.01011,-0.004 0,0 0.02079,-0.007 0.02079,-0.007 0,0 1.429027,1.2978 1.429025,1.29781 l 1.319135,-10.70908 c 0.565343,-4.58961 -0.67528,-4.74243 -0.67528,-4.74243 0,0 -1.240623,-0.15282 -1.805967,4.43679 l -1.319137,10.7091 c -0.299769,2.43386 2.169889,1.44619 2.811319,0.76787 z"
       id="path864"
       class="UnoptimicedTransforms" />
    <path
       d="m 124.40392,208.84238 -4.95852,13.94052 -5.35739,-12.31837 z"
       id="path5716"
       style="fill:#f2ca30"
       class="UnoptimicedTransforms" />
    <path
       style="fill:#1e1812;fill-opacity:1;fill-rule:nonzero;stroke:none;stroke-width:2.5;stroke-linecap:butt;stroke-linejoin:miter;stroke-miterlimit:4;stroke-dasharray:none;stroke-opacity:1"
       d="m 124.20048,213.1443 c 1.38116,-3.88302 0.20344,-4.30192 0.20344,-4.30192 0,0 -1.17772,-0.4189 -2.55887,3.46411 l -3.2227,9.06037 c 0,0 0.0215,-0.0519 0.0215,-0.0519 0,0 0.004,-0.007 0.003,-0.006 -0.001,0.002 -0.003,0.005 -0.006,0.009 -0.003,0.004 -0.005,0.008 -0.008,0.0111 -0.002,0.003 -0.004,0.006 -0.006,0.007 -0.001,0.001 -2.9e-4,3.8e-4 -2.9e-4,3.8e-4 0,0 0.007,-0.007 0.007,-0.007 0,0 0.0166,-0.015 0.0166,-0.015 0,0 1.72994,0.48443 1.72995,0.48445 l -3.60244,-8.28318 c -1.54391,-3.54993 -2.69019,-3.0514 -2.69019,-3.0514 0,0 -1.14628,0.49853 0.39762,4.04846 l 3.60245,8.28319 c 0.89635,2.06094 2.58636,0.26134 2.88971,-0.59151 z"
       id="path862"
       class="UnoptimicedTransforms" />
    <path
       d="m 105.99903,149.97158 0.20267,-12.91022 7.38165,9.21697 z"
       id="path4640"
       style="fill:#f2ca30"
       class="UnoptimicedTransforms" />
    <path
       style="fill:#1e1812;fill-opacity:1;fill-rule:nonzero;stroke:none;stroke-width:2.5;stroke-linecap:butt;stroke-linejoin:miter;stroke-miterlimit:4;stroke-dasharray:none;stroke-opacity:1"
       d="m 104.805,146.39635 c -0.0558,3.55561 1.19403,3.57523 1.19403,3.57523 0,0 1.24985,0.0196 1.30566,-3.53598 l 0.13024,-8.29642 c 0,0 -0.004,0.0555 -0.004,0.0555 0,0 -0.002,0.009 -0.001,0.008 3.2e-4,-0.001 9.4e-4,-0.004 0.002,-0.009 0.001,-0.004 0.002,-0.008 0.004,-0.0113 0.001,-0.003 0.002,-0.006 0.003,-0.007 4.8e-4,-0.001 -2.3e-4,4.4e-4 -2.3e-4,4.4e-4 0,0 -0.005,0.01 -0.005,0.01 0,0 -0.0109,0.0196 -0.0109,0.0196 0,0 -1.86561,0.0502 -1.86562,0.0502 l 4.9356,6.16276 c 2.11526,2.64118 3.09093,1.85979 3.09093,1.85979 0,0 0.97567,-0.78139 -1.13959,-3.42257 l -4.93561,-6.16277 c -1.46879,-1.83393 -2.55843,0.48472 -2.57291,1.40695 z"
       id="path860"
       class="UnoptimicedTransforms" />
    <path
       d="m 90.036496,157.38874 c -0.524031,-1.13365 -6.753463,-8.33121 -6.753463,-8.33121 l 10.21417,0.151 z"
       id="path4772"
       style="fill:#f2ca30"
       class="UnoptimicedTransforms" />
    <path
       style="fill:#1e1812;fill-opacity:1;fill-rule:nonzero;stroke:none;stroke-width:2.5;stroke-linecap:butt;stroke-linejoin:miter;stroke-miterlimit:4;stroke-dasharray:none;stroke-opacity:1"
       d="m 87.869126,156.49778 c 0.615063,0.82381 1.201547,0.93924 1.507487,0.96691 0.374569,0.0339 0.659883,-0.0759 0.659883,-0.0759 0,0 0.3017,-0.12031 0.428598,-0.52969 0.137599,-0.44391 0.01391,-1.13307 -0.62886,-1.90415 -1.440768,-1.83692 -3.766459,-4.57046 -4.914153,-5.90902 0,0 0.0046,0.006 3.45e-4,-7e-5 -0.004,-0.005 -0.0098,-0.0137 -0.01672,-0.0243 -0.0063,-0.01 -0.01263,-0.0198 -0.01918,-0.0309 -0.0058,-0.01 -0.01125,-0.0195 -0.01618,-0.0287 -0.0044,-0.008 -0.0081,-0.0155 -0.01111,-0.0217 -0.0027,-0.006 -0.0045,-0.01 -0.0055,-0.012 -8.97e-4,-0.002 -3.32e-4,-6.8e-4 -3.32e-4,-6.8e-4 0,0 0.004,0.0116 0.004,0.0116 0,0 -0.958115,1.36876 -0.958125,1.36876 0,0 0.127649,0.0108 0.423512,0.0152 l 6.409167,0.0948 c 2.746786,0.0406 2.765263,-1.20926 2.765263,-1.20926 0,0 0.01848,-1.24986 -2.728308,-1.29047 l -6.409167,-0.0948 c -0.290396,-0.004 -0.402632,-0.05 -0.819289,0.0104 -2.089073,0.30299 -0.926422,2.36103 -0.516252,2.83942 1.143491,1.33366 3.435776,4.02801 4.844939,5.82463 z"
       id="path858"
       class="UnoptimicedTransforms" />
    <path
       d="M 80.703247,172.59373 73.28445,162.47887 86.167224,160.4966 Z"
       id="path4942"
       style="fill:#f2ca30"
       class="UnoptimicedTransforms" />
    <path
       style="fill:#1e1812;fill-opacity:1;fill-rule:nonzero;stroke:none;stroke-width:2.5;stroke-linecap:butt;stroke-linejoin:miter;stroke-miterlimit:4;stroke-dasharray:none;stroke-opacity:1"
       d="m 77.657439,170.55458 c 2.03786,2.77843 3.045808,2.03915 3.045808,2.03915 0,0 1.007948,-0.73928 -1.029913,-3.51772 l -4.755009,-6.48303 c -0.0032,-0.004 -0.0087,-0.0121 -0.01646,-0.024 -0.0068,-0.0104 -0.01418,-0.0221 -0.02197,-0.0353 -0.0069,-0.0117 -0.0137,-0.0236 -0.0201,-0.0354 -0.0058,-0.0107 -0.01089,-0.0207 -0.0154,-0.0299 -0.0041,-0.008 -0.0073,-0.0154 -0.0099,-0.0213 -0.0023,-0.005 -0.0038,-0.009 -0.0046,-0.011 -6.76e-4,-0.002 -4.7e-5,1e-5 -4.7e-5,1e-5 0,0 0.0033,0.0112 0.0033,0.0112 0,0 -0.487579,1.05759 -0.48759,1.05759 0,0 -0.262019,0.11763 -0.110993,0.093 0.01681,-0.003 0.03431,-0.006 0.05252,-0.008 0.02025,-0.003 0.04114,-0.006 0.06274,-0.01 0.05512,-0.009 0.112204,-0.0172 0.170669,-0.0262 l 8.285726,-1.27492 c 3.551025,-0.5464 3.360925,-1.78186 3.360925,-1.78186 0,0 -0.1901,-1.23546 -3.741125,-0.68906 l -8.285726,1.27492 c -0.287116,0.0442 -0.756692,0.077 -1.1131,0.29823 -1.310448,0.81336 -0.397411,2.31924 -0.124843,2.69086 z"
       id="path856"
       class="UnoptimicedTransforms" />
    <path
       d="m 83.120734,190.36396 -9.511694,-2.88904 7.020727,-5.80229 z"
       id="path5140"
       style="fill:#f2ca30"
       class="UnoptimicedTransforms" />
    <path
       style="fill:#1e1812;fill-opacity:1;fill-rule:nonzero;stroke:none;stroke-width:2.5;stroke-linecap:butt;stroke-linejoin:miter;stroke-miterlimit:4;stroke-dasharray:none;stroke-opacity:1"
       d="m 80.20774,190.78557 c 2.549712,0.77444 2.912994,-0.42161 2.912994,-0.42161 0,0 0.363282,-1.19605 -2.186431,-1.97048 l -5.949329,-1.80703 c 0,0 0.0027,9.5e-4 -0.0044,-0.002 -0.0067,-0.003 -0.01565,-0.006 -0.02657,-0.0111 -0.0097,-0.004 -0.01983,-0.009 -0.02999,-0.0143 -0.0091,-0.005 -0.0176,-0.009 -0.02528,-0.0135 -0.0069,-0.004 -0.01251,-0.007 -0.01691,-0.01 -0.004,-0.002 -0.0062,-0.004 -0.0071,-0.005 -6.51e-4,-4.5e-4 0.0029,0.002 0.0029,0.002 0,0 0.01226,0.01 0.01226,0.01 0,0 0.109817,1.35142 0.109809,1.35143 0,0 -0.0067,0.0581 0.221426,-0.13047 l 4.343457,-3.58966 c 1.861482,-1.53842 1.065171,-2.50195 1.065171,-2.50195 0,0 -0.796311,-0.96353 -2.657792,0.57489 l -4.343457,3.58966 c -0.224554,0.18558 -0.480343,0.32897 -0.70692,0.66777 -0.959193,1.4343 0.802512,2.31131 1.336813,2.47359 z"
       id="path854"
       class="UnoptimicedTransforms" />
    <path
       d="m 98.598632,196.00396 -11.216209,5.12081 4.021074,-8.66307 z"
       id="path5376"
       style="fill:#f2ca30"
       class="UnoptimicedTransforms" />
    <path
       style="fill:#1e1812;fill-opacity:1;fill-rule:nonzero;stroke:none;stroke-width:2.5;stroke-linecap:butt;stroke-linejoin:miter;stroke-miterlimit:4;stroke-dasharray:none;stroke-opacity:1"
       d="m 96.041738,198.54544 c 3.07604,-1.40438 2.556894,-2.54148 2.556894,-2.54148 0,0 -0.519146,-1.1371 -3.595187,0.26728 l -7.177427,3.27689 c 0,0 0.05202,-0.0206 0.05202,-0.0206 0,0 0.0089,-0.003 0.0075,-0.002 -0.0017,3.9e-4 -0.0045,0.001 -0.0092,0.002 -0.0041,6.8e-4 -0.0082,0.001 -0.0122,0.002 -0.0036,4.1e-4 -0.0063,6.2e-4 -0.008,7.3e-4 -0.0014,9e-5 2.53e-4,3e-5 2.53e-4,3e-5 0,0 0.01068,1.6e-4 0.01068,1.6e-4 0,0 0.02235,0.001 0.02235,0.001 0,0 0.849541,1.6399 0.849534,1.63991 l 2.658799,-5.72816 c 1.139485,-2.45493 0.0057,-2.9812 0.0057,-2.9812 0,0 -1.133814,-0.52627 -2.2733,1.92865 l -2.658806,5.72818 c -0.974887,2.10038 1.559042,2.0845 2.392919,1.70379 z"
       id="path852"
       class="UnoptimicedTransforms" />
    <path
       d="m 113.25213,195.51626 -6.02353,9.8056 -1.13043,-8.73573 z"
       id="path5650"
       style="fill:#f2ca30"
       class="UnoptimicedTransforms" />
    <path
       style="fill:#1e1812;fill-opacity:1;fill-rule:nonzero;stroke:none;stroke-width:2.5;stroke-linecap:butt;stroke-linejoin:miter;stroke-miterlimit:4;stroke-dasharray:none;stroke-opacity:1"
       d="m 112.67635,198.84169 c 1.64087,-2.67115 0.57578,-3.32543 0.57578,-3.32543 0,0 -1.06509,-0.65428 -2.70596,2.01687 l -3.8287,6.23267 c 0,0 0.0314,-0.0456 0.0314,-0.0456 0,0 0.006,-0.007 0.005,-0.007 -9.7e-4,0.001 -0.003,0.003 -0.006,0.006 -0.003,0.003 -0.006,0.005 -0.009,0.008 -0.003,0.002 -0.005,0.004 -0.006,0.005 -9.6e-4,7.4e-4 5.4e-4,-3.5e-4 5.4e-4,-3.5e-4 0,0 0.009,-0.006 0.009,-0.006 0,0 0.0192,-0.0113 0.0192,-0.0113 0,0 1.63746,0.92233 1.63746,0.92234 l -0.74376,-5.74765 c -0.31876,-2.46329 -1.55842,-2.30287 -1.55842,-2.30287 0,0 -1.23966,0.16042 -0.92091,2.6237 l 0.74377,5.74767 c 0.30585,2.36332 2.44043,0.90832 2.92662,0.11686 z"
       id="path850"
       class="UnoptimicedTransforms" />
    <path
       d="m 104.20622,165.30948 1.68594,-8.65823 5.50839,6.20279 z"
       id="path4838"
       style="fill:#f2ca30"
       class="UnoptimicedTransforms" />
    <path
       style="fill:#1e1812;fill-opacity:1;fill-rule:nonzero;stroke:none;stroke-width:2.5;stroke-linecap:butt;stroke-linejoin:miter;stroke-miterlimit:4;stroke-dasharray:none;stroke-opacity:1"
       d="m 103.42436,162.78474 c -0.4451,2.28583 0.78186,2.52474 0.78186,2.52474 0,0 1.22696,0.23891 1.67205,-2.04691 l 1.03856,-5.33358 c 0,0 -0.004,0.0174 -0.003,0.0148 7.9e-4,-0.003 0.003,-0.009 0.006,-0.0174 0.003,-0.008 0.006,-0.0161 0.01,-0.0252 0.003,-0.008 0.007,-0.0156 0.01,-0.0225 0.003,-0.006 0.005,-0.0112 0.008,-0.015 0.002,-0.003 0.003,-0.005 0.003,-0.005 4e-5,-8e-5 -0.003,0.005 -0.003,0.005 0,0 -0.0106,0.0149 -0.0106,0.0149 0,0 -1.48618,0.12897 -1.48619,0.12896 0,0 0.0154,0.0457 0.21059,0.26552 l 3.36395,3.78802 c 1.44169,1.62344 2.37634,0.79342 2.37634,0.79342 0,0 0.93465,-0.83002 -0.50704,-2.45345 l -3.36395,-3.78802 c -0.19406,-0.21852 -0.54667,-0.58035 -0.57007,-0.59808 -1.49516,-1.1329 -2.37183,0.79609 -2.49657,1.43667 z"
       id="path848"
       class="UnoptimicedTransforms" />
    <path
       d="m 94.123776,180.24668 -5.598819,-6.82694 6.885885,-2.30606 z"
       id="path5074"
       style="fill:#f2ca30"
       class="UnoptimicedTransforms" />
    <path
       style="fill:#1e1812;fill-opacity:1;fill-rule:nonzero;stroke:none;stroke-width:2.5;stroke-linecap:butt;stroke-linejoin:miter;stroke-miterlimit:4;stroke-dasharray:none;stroke-opacity:1"
       d="m 91.578264,179.11401 c 1.578978,1.92533 2.545512,1.13267 2.545512,1.13267 0,0 0.966534,-0.79266 -0.612444,-2.71799 l -3.684281,-4.49244 c 0,0 0.09752,0.14691 0.09752,0.14691 0,0 0.0615,0.14699 0.0615,0.14699 0,0 0.03173,0.13685 0.03173,0.13685 0,0 0.0098,0.12276 0.0098,0.12276 0,0 -0.0056,0.10832 -0.0056,0.10832 0,0 -0.01607,0.095 -0.01607,0.095 0,0 -0.02314,0.0832 -0.02314,0.0832 0,0 -0.02778,0.0728 -0.02778,0.0728 0,0 -0.53133,0.488 -0.53133,0.488 l 4.468876,-1.49661 c 1.915233,-0.6414 1.518281,-1.8267 1.518281,-1.8267 0,0 -0.396952,-1.1853 -2.312185,-0.54389 l -4.468876,1.49661 c -1.082958,0.36268 -1.460021,1.67208 -0.735798,2.55517 z"
       id="path846"
       class="UnoptimicedTransforms" />
    <path
       d="m 108.32268,185.28917 -5.64484,5.8677 -2.1583,-5.81844 z"
       id="path5442"
       style="fill:#f2ca30"
       class="UnoptimicedTransforms" />
    <path
       style="fill:#1e1812;fill-opacity:1;fill-rule:nonzero;stroke:none;stroke-width:2.5;stroke-linecap:butt;stroke-linejoin:miter;stroke-miterlimit:4;stroke-dasharray:none;stroke-opacity:1"
       d="m 107.75017,187.68728 c 1.47333,-1.5315 0.57251,-2.39811 0.57251,-2.39811 0,0 -0.90082,-0.86661 -2.37416,0.66489 l -3.43777,3.5735 c -0.006,0.006 -0.0136,0.0138 -0.0249,0.0245 -0.01,0.009 -0.0209,0.0194 -0.0331,0.0299 -0.0108,0.009 -0.0218,0.0185 -0.0327,0.0273 -0.01,0.008 -0.0191,0.015 -0.0277,0.0213 -0.008,0.006 -0.0144,0.0104 -0.02,0.0142 -0.005,0.003 -0.009,0.006 -0.0108,0.007 -0.002,0.001 -9.2e-4,5.9e-4 -9.2e-4,5.9e-4 0,0 0.009,-0.005 0.009,-0.005 0,0 1.08526,0.25022 1.08527,0.25023 0,0 0.1836,0.24708 0.14344,0.14407 -0.005,-0.0129 -0.0102,-0.0264 -0.0157,-0.0407 -0.006,-0.0159 -0.0123,-0.0324 -0.0188,-0.0496 -0.007,-0.0192 -0.0146,-0.039 -0.0223,-0.0595 -0.0196,-0.0525 -0.0395,-0.10668 -0.0601,-0.16222 l -1.25316,-3.37832 c -0.53707,-1.44785 -1.70904,-1.01312 -1.70904,-1.01312 0,0 -1.171968,0.43473 -0.6349,1.88258 l 1.25316,3.37833 c 0.10096,0.27216 0.24871,0.76414 0.54639,1.06293 1.03341,1.03727 2.32583,-0.0872 2.62821,-0.40149 z"
       id="path45326"
       class="UnoptimicedTransforms" />
  </g>
  <g
     id="layer4"
     style="display:inline"
     transform="translate(-28.188727,-61.857867)">
    <path
       style="fill:#008000;stroke:#1e1812;stroke-width:2.5;stroke-linecap:butt;stroke-linejoin:miter;stroke-miterlimit:4;stroke-dasharray:none;stroke-opacity:1"
       d="m 111.93321,99.925105 c -1.0441,-1.936235 -4.27067,-9.886794 5.83468,-20.554643 0.20088,-0.21207 0.531,-0.551858 0.73709,-0.759071 10.90398,-10.963581 25.96499,-14.82469 28.92525,-15.49854 0.28463,-0.06479 0.53889,0.123912 0.55801,0.415526 0.16596,2.531851 0.51141,13.583163 -5.44537,20.115043 -0.19672,0.21571 -0.52848,0.553806 -0.73474,0.760854 -12.29578,12.342976 -26.24167,15.381298 -29.08326,15.889906 -0.28715,0.0514 -0.65301,-0.11194 -0.79166,-0.369075 z"
       id="path38950" />
  </g>
</svg>
