<?xml version="1.0" encoding="UTF-8" standalone="no"?>
<svg
   width="128pt"
   height="128pt"
   viewBox="0 0 128 128"
   version="1.1"
   id="svg74"
   sodipodi:docname="org.mozilla.seamonkey.svg"
   inkscape:version="1.2.2 (b0a8486541, 2022-12-01)"
   xmlns:inkscape="http://www.inkscape.org/namespaces/inkscape"
   xmlns:sodipodi="http://sodipodi.sourceforge.net/DTD/sodipodi-0.dtd"
   xmlns="http://www.w3.org/2000/svg"
   xmlns:svg="http://www.w3.org/2000/svg">
  <defs
     id="defs78" />
  <sodipodi:namedview
     id="namedview76"
     pagecolor="#ffffff"
     bordercolor="#666666"
     borderopacity="1.0"
     inkscape:showpageshadow="2"
     inkscape:pageopacity="0.0"
     inkscape:pagecheckerboard="0"
     inkscape:deskcolor="#d1d1d1"
     inkscape:document-units="pt"
     showgrid="false"
     inkscape:zoom="4.7109375"
     inkscape:cx="30.991708"
     inkscape:cy="85.439469"
     inkscape:window-width="2560"
     inkscape:window-height="1362"
     inkscape:window-x="0"
     inkscape:window-y="41"
     inkscape:window-maximized="1"
     inkscape:current-layer="svg74" />
  <path
     fill="#ffffff"
     d="M 0,0 H 128 V 61.38 C 127.3,51.52 124.92,41.62 119.9,33.02 111.58,18.84 98.08,7.37 82.04,3.1 68.85,-0.36 54.54,0.09 41.73,4.88 27.51,10.31 15.82,21.33 8.52,34.56 1.3,48.1 -0.3,64.3 3.12,79.17 c 2.6,11.34 8.82,21.69 17.07,29.82 0.6,-0.37 1.2,-0.75 1.79,-1.14 12.72,-9.17 23.34,-21.05 31.8,-34.2 2.6,-4.19 4.94,-8.55 7.01,-13.02 0.71,-1.54 1.35,-3.1 1.98,-4.66 3.33,-7.86 4.53,-16.45 8.26,-24.16 2.56,-5.31 5.73,-10.88 11.25,-13.57 5.07,-2.55 12.17,-4.45 16.74,0.04 3.37,4.76 -1.7,9.65 -4.9,12.88 4.75,1.27 8.82,5.05 10.05,9.85 1.92,6.25 2.49,12.97 1.4,19.43 -0.15,1.27 -0.34,2.55 -0.59,3.81 -0.15,0.58 -0.43,1.75 -0.57,2.33 -4.4,15.2 -18.76,24.66 -33.07,29.33 -10.02,3.46 -20.49,5.36 -30.99,6.58 -4.54,3.14 -8.83,6.67 -13.35,9.86 -0.42,0.3 -1.27,0.92 -1.69,1.22 11.3,9.36 26.06,14.31 40.71,13.62 20.22,0.36 39.39,-11 50.81,-27.35 C 123.71,90.41 127.05,78.9 128,67.37 V 128 H 0 Z"
     id="path2"
     style="display:none;fill:none" />
  <path
     fill="#06067d"
     d="M 41.73,4.88 C 54.54,0.09 68.85,-0.36 82.04,3.1 c 16.04,4.27 29.54,15.74 37.86,29.92 5.02,8.6 7.4,18.5 8.1,28.36 v 5.99 c -0.95,11.53 -4.29,23.04 -11.17,32.47 -11.42,16.35 -30.59,27.71 -50.81,27.35 -14.65,0.69 -29.41,-4.26 -40.71,-13.62 0.42,-0.3 1.27,-0.92 1.69,-1.22 2.23,1.63 4.45,3.28 6.82,4.7 7.78,4.66 16.66,7.6 25.74,8.1 6.46,0.15 13.02,0.26 19.34,-1.35 16.3,-3.7 30.26,-15 38.79,-29.17 4.13,-6.8 6.68,-14.52 7.6,-22.4 0.31,-2.72 0.53,-5.46 0.59,-8.2 -0.2,-3.19 -0.45,-6.39 -0.76,-9.57 -6.8,0.9 -13.34,3.11 -19.55,5.98 1.09,-6.46 0.52,-13.18 -1.4,-19.43 -1.23,-4.8 -5.3,-8.58 -10.05,-9.85 3.2,-3.23 8.27,-8.12 4.9,-12.88 1.03,-0.72 2.07,-1.45 3.1,-2.17 C 96.89,11.72 90.87,8.15 84.32,6.15 68.32,1.09 50.09,1.99 35.28,10.2 24.78,15.87 16.48,25.03 10.56,35.28 6.78,41.82 5.16,49.29 4.11,56.69 3.73,59.01 3.59,61.35 3.57,63.7 c 0.03,2.42 0.15,4.84 0.37,7.25 1.17,14 7.96,27.21 18.04,36.9 -0.59,0.39 -1.19,0.77 -1.79,1.14 C 11.94,100.86 5.72,90.51 3.12,79.17 -0.3,64.3 1.3,48.1 8.52,34.56 15.82,21.33 27.51,10.31 41.73,4.88 Z"
     id="path4"
     style="display:inline" />
  <path
     fill="#272793"
     d="M 35.28,10.2 C 50.09,1.99 68.32,1.09 84.32,6.15 73.34,11.57 61.73,15.46 50.63,20.58 c -5.42,2.33 -11.17,3.85 -16.42,6.58 -4.54,2.37 -9.49,3.78 -14.13,5.92 -2.81,1.2 -5.56,2.68 -8.56,3.34 C 11.28,36.14 10.8,35.57 10.56,35.28 16.48,25.03 24.78,15.87 35.28,10.2 Z"
     id="path6"
     style="display:inline" />
  <path
     fill="#1b1b8b"
     d="m 84.32,6.15 c 6.55,2 12.57,5.57 17.8,9.96 -1.03,0.72 -2.07,1.45 -3.1,2.17 -4.57,-4.49 -11.67,-2.59 -16.74,-0.04 -5.52,2.69 -8.69,8.26 -11.25,13.57 -1.47,0.08 -2.99,0.11 -4.34,0.78 -12.55,5.67 -25.48,10.48 -38.15,15.85 -3.7,1.76 -7.64,2.9 -11.52,4.16 1.06,0.39 2.14,0.76 3.22,1.11 -2.13,0.3 -4.25,0.7 -6.38,1.08 -3.29,0.42 -6.54,1.07 -9.75,1.9 1.05,-7.4 2.67,-14.87 6.45,-21.41 0.24,0.29 0.72,0.86 0.96,1.14 3,-0.66 5.75,-2.14 8.56,-3.34 4.64,-2.14 9.59,-3.55 14.13,-5.92 5.25,-2.73 11,-4.25 16.42,-6.58 11.1,-5.12 22.71,-9.01 33.69,-14.43 z"
     id="path8"
     style="display:inline" />
  <path
     fill="#2388ff"
     d="m 76.64,25.58 c 3.71,-5.11 10,-8.31 16.34,-7.98 1.94,0 3.94,0.86 5.07,2.49 1.08,4.18 -2.83,7.35 -5.3,10.17 0.18,0.66 0.55,1.98 0.74,2.64 -1.15,-0.04 -2.29,-0.2 -3.42,-0.4 -0.35,-2.89 1.75,-4.79 3.42,-6.81 1.29,-1.49 2.26,-3.22 2.64,-5.17 l -0.12,-0.07 c -2.86,-2.19 -6.82,-1.03 -9.92,0.01 -6.06,2.08 -9.63,7.96 -12.06,13.54 -3.42,7.79 -4.61,16.28 -7.69,24.18 -1.92,2.4 -2.76,5.41 -4.13,8.12 -3.46,7.19 -7.41,14.23 -12.52,20.4 -2.42,3.18 -5.35,5.95 -7.65,9.23 4.24,-1.84 7.99,-4.59 11.98,-6.89 7.64,-4.48 15.03,-9.61 20.78,-16.43 l 0.34,0.97 c -1.06,2.13 -2.54,4.11 -2.89,6.52 1.24,0.62 2.47,1.23 3.72,1.84 -1.19,0.89 -2.39,1.77 -3.59,2.64 0.23,-2.35 -0.06,-4.67 -1.19,-6.76 -3.56,4.06 -8.31,6.7 -12.81,9.56 -1.39,0.88 -1.49,2.77 -2.17,4.12 -1.2,0.09 -2.39,-0.03 -3.58,-0.1 -1.01,1.03 -2.03,2.05 -3.08,3.04 -3.39,-0.07 -5.6,2.92 -8.42,4.34 -0.81,0.62 -1.48,1.4 -2.16,2.16 -10.99,8.8 -22.77,18.58 -37.24,20.28 l 0.85,-0.79 C 23.95,112.1 41.24,95.64 53.82,76.78 59.9,67.62 64.74,57.58 67.61,46.95 69.65,39.49 72.09,31.93 76.64,25.58 Z"
     id="path10"
     style="display:inline" />
  <path
     fill="#ffffff"
     d="m 86.09,20.46 c 3.1,-1.04 7.06,-2.2 9.92,-0.01 -3.59,0.52 -7.39,0.18 -10.71,1.89 -4.73,2.28 -7.8,6.94 -9.74,11.67 -1.96,4.89 -4.57,9.67 -5.29,14.96 -1.15,3.76 -2.99,7.28 -3.87,11.12 -0.02,-0.47 -0.04,-1.43 -0.06,-1.91 3.08,-7.9 4.27,-16.39 7.69,-24.18 2.43,-5.58 6,-11.46 12.06,-13.54 z"
     id="path12"
     style="display:inline" />
  <path
     fill="#acd5ff"
     d=" M 96.01 20.45 L 96.13 20.52 C 95.75 22.47 94.78 24.20 93.49 25.69 C 86.84 26.84 82.15 32.58 75.56 34.01 C 77.50 29.28 80.57 24.62 85.30 22.34 C 88.62 20.63 92.42 20.97 96.01 20.45 Z"
     id="path14" />
  <path
     fill="#80beff"
     d=" M 75.56 34.01 C 82.15 32.58 86.84 26.84 93.49 25.69 C 91.82 27.71 89.72 29.61 90.07 32.50 C 88.42 32.30 86.77 32.38 85.12 32.46 C 84.85 35.82 85.01 39.22 84.44 42.55 C 79.89 45.02 75.64 48.63 70.27 48.97 C 70.99 43.68 73.60 38.90 75.56 34.01 Z"
     id="path16" />
  <path
     fill="#0e0e82"
     d=" M 66.69 32.59 C 68.04 31.92 69.56 31.89 71.03 31.81 C 67.30 39.52 66.10 48.11 62.77 55.97 C 59.88 56.44 57.15 57.51 54.41 58.51 C 43.48 54.59 31.84 52.86 20.24 53.71 C 19.16 53.36 18.08 52.99 17.02 52.60 C 20.90 51.34 24.84 50.20 28.54 48.44 C 41.21 43.07 54.14 38.26 66.69 32.59 Z"
     id="path18" />
  <path
     fill="#4da1ff"
     d=" M 85.12 32.46 C 86.77 32.38 88.42 32.30 90.07 32.50 C 91.20 32.70 92.34 32.86 93.49 32.90 C 98.57 33.44 102.02 38.32 103.00 43.01 C 105.90 54.72 104.54 68.20 96.72 77.79 C 88.82 87.55 76.83 92.77 65.02 96.09 C 56.48 98.37 47.78 100.10 38.97 100.94 C 39.65 100.18 40.32 99.40 41.13 98.78 C 41.50 98.98 42.25 99.36 42.62 99.55 C 51.04 98.40 59.34 96.49 67.54 94.26 C 67.93 94.14 68.70 93.90 69.09 93.78 C 70.61 93.29 72.12 92.76 73.61 92.19 C 74.59 91.78 75.58 91.36 76.54 90.91 C 77.85 90.30 79.14 89.68 80.43 89.04 C 81.35 88.57 82.26 88.07 83.17 87.57 C 85.00 86.55 86.83 85.50 88.47 84.18 C 89.16 83.62 89.85 83.04 90.53 82.45 C 92.92 80.27 95.41 78.09 97.10 75.29 L 97.38 74.85 C 99.52 71.46 101.56 67.87 102.22 63.86 C 102.25 63.64 102.32 63.19 102.35 62.97 C 103.41 56.57 103.77 49.84 101.99 43.53 C 101.93 43.31 101.82 42.88 101.76 42.66 C 101.16 39.05 98.24 36.48 95.36 34.56 C 92.20 34.24 88.96 34.57 85.78 34.67 C 88.50 35.76 91.43 34.95 94.23 35.42 C 94.31 35.86 94.47 36.74 94.54 37.18 C 92.13 36.92 89.67 36.27 87.26 36.85 C 87.12 37.42 86.84 38.57 86.70 39.15 C 85.99 43.74 86.34 48.46 85.12 52.98 C 84.36 56.31 82.77 59.47 82.62 62.93 C 82.56 65.86 83.35 68.70 83.88 71.56 C 85.31 71.53 86.73 71.48 88.16 71.42 C 86.86 73.02 85.63 74.67 84.22 76.17 C 82.95 73.55 81.96 70.33 79.12 68.99 C 78.61 71.25 78.50 73.57 78.69 75.88 C 79.81 76.61 80.92 77.34 82.05 78.06 C 80.72 79.18 79.40 80.31 78.00 81.35 C 77.32 78.67 76.40 76.05 75.14 73.58 L 74.80 72.61 C 77.14 69.37 79.26 65.97 80.93 62.34 C 74.11 66.66 67.26 71.05 59.96 74.50 C 61.59 69.46 65.21 65.30 66.40 60.09 C 67.28 56.25 69.12 52.73 70.27 48.97 C 75.64 48.63 79.89 45.02 84.44 42.55 C 85.01 39.22 84.85 35.82 85.12 32.46 Z"
     id="path20" />
  <path
     fill="#c8e0f9"
     d=" M 85.78 34.67 C 88.96 34.57 92.20 34.24 95.36 34.56 C 98.24 36.48 101.16 39.05 101.76 42.66 C 99.72 42.61 97.11 43.16 95.73 41.22 C 95.07 39.96 94.83 38.55 94.54 37.18 C 94.47 36.74 94.31 35.86 94.23 35.42 C 91.43 34.95 88.50 35.76 85.78 34.67 Z"
     id="path22" />
  <path
     fill="#88bef9"
     d=" M 87.26 36.85 C 89.67 36.27 92.13 36.92 94.54 37.18 C 94.83 38.55 95.07 39.96 95.73 41.22 C 97.11 43.16 99.72 42.61 101.76 42.66 C 101.82 42.88 101.93 43.31 101.99 43.53 C 99.87 43.45 97.75 43.41 95.63 43.39 C 94.39 48.07 98.74 50.79 102.16 52.81 C 99.94 52.33 97.73 51.80 95.51 51.36 C 95.44 52.99 95.41 54.61 95.42 56.23 C 97.31 58.88 99.83 60.96 102.35 62.97 C 102.32 63.19 102.25 63.64 102.22 63.86 C 99.64 62.15 97.06 59.85 93.83 59.70 C 92.11 65.09 96.18 69.82 97.38 74.85 L 97.10 75.29 C 95.09 72.92 93.01 70.61 90.78 68.43 C 90.11 69.16 89.46 69.90 88.81 70.65 L 88.16 71.42 C 86.73 71.48 85.31 71.53 83.88 71.56 C 83.35 68.70 82.56 65.86 82.62 62.93 C 85.77 63.89 88.30 66.00 90.78 68.06 C 91.04 66.97 91.30 65.88 91.54 64.79 C 87.34 65.01 83.50 60.31 85.82 56.42 C 88.94 57.03 91.89 58.23 94.95 59.08 C 94.23 56.04 90.62 56.18 88.53 54.54 C 86.79 53.72 87.33 51.51 86.97 49.98 C 90.08 50.00 93.13 50.68 96.22 50.99 C 94.51 47.64 89.95 48.87 87.57 46.35 C 87.34 45.36 87.17 44.35 87.06 43.33 C 89.84 43.10 92.63 43.10 95.41 43.00 C 95.04 40.72 92.57 41.60 90.96 41.23 C 89.30 41.19 88.00 40.03 86.70 39.15 C 86.84 38.57 87.12 37.42 87.26 36.85 Z"
     id="path24" />
  <path
     fill="#50a0f8"
     d=" M 85.12 52.98 C 86.34 48.46 85.99 43.74 86.70 39.15 C 88.00 40.03 89.30 41.19 90.96 41.23 C 92.57 41.60 95.04 40.72 95.41 43.00 C 92.63 43.10 89.84 43.10 87.06 43.33 C 87.17 44.35 87.34 45.36 87.57 46.35 C 89.95 48.87 94.51 47.64 96.22 50.99 C 93.13 50.68 90.08 50.00 86.97 49.98 C 87.33 51.51 86.79 53.72 88.53 54.54 C 90.62 56.18 94.23 56.04 94.95 59.08 C 91.89 58.23 88.94 57.03 85.82 56.42 C 83.50 60.31 87.34 65.01 91.54 64.79 C 91.30 65.88 91.04 66.97 90.78 68.06 C 88.30 66.00 85.77 63.89 82.62 62.93 C 82.77 59.47 84.36 56.31 85.12 52.98 Z"
     id="path26" />
  <path
     fill="#c5def9"
     d=" M 102.16 52.81 C 98.74 50.79 94.39 48.07 95.63 43.39 C 97.75 43.41 99.87 43.45 101.99 43.53 C 103.77 49.84 103.41 56.57 102.35 62.97 C 99.83 60.96 97.31 58.88 95.42 56.23 C 95.41 54.61 95.44 52.99 95.51 51.36 C 97.73 51.80 99.94 52.33 102.16 52.81 Z"
     id="path28" />
  <path
     fill="#5454b7"
     d=" M 13.86 54.79 C 15.99 54.41 18.11 54.01 20.24 53.71 C 31.84 52.86 43.48 54.59 54.41 58.51 L 53.80 58.71 C 46.65 61.01 38.77 60.66 31.65 58.40 C 25.97 56.24 19.99 54.63 13.86 54.79 Z"
     id="path30" />
  <path
     fill="#8788fe"
     d=" M 4.11 56.69 C 7.32 55.86 10.57 55.21 13.86 54.79 C 19.99 54.63 25.97 56.24 31.65 58.40 C 38.77 60.66 46.65 61.01 53.80 58.71 C 56.19 59.10 58.49 59.89 60.79 60.63 C 58.72 65.10 56.38 69.46 53.78 73.65 C 46.65 72.42 39.66 70.56 32.87 68.05 C 23.62 64.33 13.48 63.16 3.57 63.70 C 3.59 61.35 3.73 59.01 4.11 56.69 Z"
     id="path32" />
  <path
     fill="#8b8cfe"
     d=" M 105.57 60.44 C 111.78 57.57 118.32 55.36 125.12 54.46 C 125.43 57.64 125.68 60.84 125.88 64.03 C 118.93 63.46 111.90 63.34 104.98 64.25 C 105.23 62.99 105.42 61.71 105.57 60.44 Z"
     id="path34" />
  <path
     fill="#3f3fab"
     d=" M 54.41 58.51 C 57.15 57.51 59.88 56.44 62.77 55.97 C 62.14 57.53 61.50 59.09 60.79 60.63 C 58.49 59.89 56.19 59.10 53.80 58.71 L 54.41 58.51 Z"
     id="path36" />
  <path
     fill="#6eb4ff"
     d=" M 62.21 66.30 C 63.58 63.59 64.42 60.58 66.34 58.18 C 66.36 58.66 66.38 59.62 66.40 60.09 C 65.21 65.30 61.59 69.46 59.96 74.50 C 67.26 71.05 74.11 66.66 80.93 62.34 C 79.26 65.97 77.14 69.37 74.80 72.61 C 69.05 79.43 61.66 84.56 54.02 89.04 C 50.03 91.34 46.28 94.09 42.04 95.93 C 44.34 92.65 47.27 89.88 49.69 86.70 C 54.80 80.53 58.75 73.49 62.21 66.30 Z"
     id="path38" />
  <path
     fill="#c2ddf9"
     d=" M 93.83 59.70 C 97.06 59.85 99.64 62.15 102.22 63.86 C 101.56 67.87 99.52 71.46 97.38 74.85 C 96.18 69.82 92.11 65.09 93.83 59.70 Z"
     id="path40" />
  <path
     fill="#595afd"
     d=" M 3.57 63.70 C 13.48 63.16 23.62 64.33 32.87 68.05 C 27.06 69.92 21.25 72.31 15.04 72.28 C 11.29 72.42 7.61 71.55 3.94 70.95 C 3.72 68.54 3.60 66.12 3.57 63.70 Z"
     id="path42" />
  <path
     fill="#5252fe"
     d=" M 104.98 64.25 C 111.90 63.34 118.93 63.46 125.88 64.03 C 125.82 66.77 125.60 69.51 125.29 72.23 C 118.07 71.31 111.53 67.90 104.41 66.58 C 104.55 66.00 104.83 64.83 104.98 64.25 Z"
     id="path44" />
  <path
     fill="#1d1de3"
     d=" M 71.34 95.91 C 85.65 91.24 100.01 81.78 104.41 66.58 C 111.53 67.90 118.07 71.31 125.29 72.23 C 124.37 80.11 121.82 87.83 117.69 94.63 C 112.85 94.34 109.27 98.12 105.28 100.24 C 96.77 104.97 88.42 109.99 79.99 114.87 C 73.27 118.47 66.88 122.81 59.56 125.15 C 50.48 124.65 41.60 121.71 33.82 117.05 C 44.83 112.67 54.18 105.15 64.80 100.02 C 67.18 98.97 70.20 98.62 71.34 95.91 Z"
     id="path46" />
  <path
     fill="#0202de"
     d=" M 32.87 68.05 C 39.66 70.56 46.65 72.42 53.78 73.65 C 45.32 86.80 34.70 98.68 21.98 107.85 C 11.90 98.16 5.11 84.95 3.94 70.95 C 7.61 71.55 11.29 72.42 15.04 72.28 C 21.25 72.31 27.06 69.92 32.87 68.05 Z"
     id="path48" />
  <path
     fill="#7cb9f9"
     d=" M 79.12 68.99 C 81.96 70.33 82.95 73.55 84.22 76.17 C 84.06 76.31 83.75 76.60 83.59 76.75 L 82.72 77.50 L 82.05 78.06 C 80.92 77.34 79.81 76.61 78.69 75.88 C 78.50 73.57 78.61 71.25 79.12 68.99 Z"
     id="path50" />
  <path
     fill="#bfdbf9"
     d=" M 88.81 70.65 C 89.46 69.90 90.11 69.16 90.78 68.43 C 93.01 70.61 95.09 72.92 97.10 75.29 C 95.41 78.09 92.92 80.27 90.53 82.45 C 90.40 78.46 89.68 74.53 88.81 70.65 Z"
     id="path52" />
  <path
     fill="#a4cbf6"
     d=" M 88.16 71.42 L 88.81 70.65 C 89.68 74.53 90.40 78.46 90.53 82.45 C 89.85 83.04 89.16 83.62 88.47 84.18 C 87.09 81.55 85.49 79.03 83.59 76.75 C 83.75 76.60 84.06 76.31 84.22 76.17 C 85.63 74.67 86.86 73.02 88.16 71.42 Z"
     id="path54" />
  <path
     fill="#9bc7f6"
     d=" M 75.14 73.58 C 76.40 76.05 77.32 78.67 78.00 81.35 C 79.40 80.31 80.72 79.18 82.05 78.06 L 82.72 77.50 C 82.52 80.86 82.71 84.24 83.17 87.57 C 82.26 88.07 81.35 88.57 80.43 89.04 C 79.58 86.49 78.75 83.87 77.15 81.67 C 76.18 84.66 76.06 87.83 76.54 90.91 C 75.58 91.36 74.59 91.78 73.61 92.19 C 73.32 89.82 72.91 87.46 71.90 85.28 C 69.89 87.66 69.27 90.75 69.09 93.78 C 68.70 93.90 67.93 94.14 67.54 94.26 C 67.33 92.20 67.06 90.16 66.70 88.13 C 63.34 89.64 59.86 90.88 56.21 91.50 C 56.89 90.15 56.99 88.26 58.38 87.38 C 62.88 84.52 67.63 81.88 71.19 77.82 C 72.32 79.91 72.61 82.23 72.38 84.58 C 73.58 83.71 74.78 82.83 75.97 81.94 C 74.72 81.33 73.49 80.72 72.25 80.10 C 72.60 77.69 74.08 75.71 75.14 73.58 Z"
     id="path56" />
  <path
     fill="#bddaf9"
     d=" M 83.59 76.75 C 85.49 79.03 87.09 81.55 88.47 84.18 C 86.83 85.50 85.00 86.55 83.17 87.57 C 82.71 84.24 82.52 80.86 82.72 77.50 L 83.59 76.75 Z"
     id="path58" />
  <path
     fill="#bfdbf9"
     d=" M 77.15 81.67 C 78.75 83.87 79.58 86.49 80.43 89.04 C 79.14 89.68 77.85 90.30 76.54 90.91 C 76.06 87.83 76.18 84.66 77.15 81.67 Z"
     id="path60" />
  <path
     fill="#5ca5f6"
     d=" M 66.65 83.31 C 68.68 82.81 70.12 83.33 70.97 84.88 C 69.38 85.98 67.71 87.92 65.53 87.12 C 65.89 85.84 66.26 84.57 66.65 83.31 Z"
     id="path62" />
  <path
     fill="#c1dcf8"
     d=" M 69.09 93.78 C 69.27 90.75 69.89 87.66 71.90 85.28 C 72.91 87.46 73.32 89.82 73.61 92.19 C 72.12 92.76 70.61 93.29 69.09 93.78 Z"
     id="path64" />
  <path
     fill="#56a2f6"
     d=" M 61.36 86.96 C 62.90 85.46 64.85 88.02 62.66 88.79 C 61.09 90.27 59.37 87.91 61.36 86.96 Z"
     id="path66" />
  <path
     fill="#c6dff8"
     d=" M 56.21 91.50 C 59.86 90.88 63.34 89.64 66.70 88.13 C 67.06 90.16 67.33 92.20 67.54 94.26 C 59.34 96.49 51.04 98.40 42.62 99.55 C 42.25 99.36 41.50 98.98 41.13 98.78 C 43.95 97.36 46.16 94.37 49.55 94.44 C 50.60 93.45 51.62 92.43 52.63 91.40 C 53.82 91.47 55.01 91.59 56.21 91.50 Z"
     id="path68" />
  <path
     fill="#2c2ce5"
     d=" M 105.28 100.24 C 109.27 98.12 112.85 94.34 117.69 94.63 C 109.16 108.80 95.20 120.10 78.90 123.80 C 72.58 125.41 66.02 125.30 59.56 125.15 C 66.88 122.81 73.27 118.47 79.99 114.87 C 88.42 109.99 96.77 104.97 105.28 100.24 Z"
     id="path70" />
  <path
     fill="#1111e2"
     d=" M 40.35 102.49 C 50.85 101.27 61.32 99.37 71.34 95.91 C 70.20 98.62 67.18 98.97 64.80 100.02 C 54.18 105.15 44.83 112.67 33.82 117.05 C 31.45 115.63 29.23 113.98 27.00 112.35 C 31.52 109.16 35.81 105.63 40.35 102.49 Z"
     id="path72" />
</svg>
