/* XPM */
static char * openbsd_xpm[] = {
"60 20 17 1",
" 	c None",
".	c #050303",
"+	c #D10908",
"@	c #FEFA1F",
"#	c #021EFE",
"$	c #EAE5E5",
"%	c #950907",
"&	c #C5C1C1",
"*	c #9B9A89",
"=	c #660606",
"-	c #D59190",
";	c #867C47",
">	c #4B0C0C",
",	c #BD6769",
"'	c #727272",
")	c #9D6243",
"!	c #390706",
"                                              @@@@ ++       ",
"   #####                                     @ ;@@  +%!     ",
"  ##  ##                                    @@  @!%+%%+=    ",
" ##    #  ## ###    ###   ## ###         % @@ .>+++%++++!   ",
" #     #  ###  ##  #   ##  ##  ##       %+ @*;>%%++%,$,+%   ",
" #     #  ##   ## ##   ##  #    #      !++ @@)%,;%++,$$+%   ",
" #    ##  ##   ## #######  #   ##      =++++%=)&$*+++$$$+   ",
" ##   #   ##   #  ##       #   ##      =%+++==)&$$)%+&>'-+  ",
"  ####    #####    #####  ### ###      !%%%%>='&&**=%)).',+ ",
"          #                             !=%=>%'&'.*>!%++>-+%",
"         ##      ......   ....   ......  !==>+'&>.*>!%++++++",
"        ####     ..  ...  .. ..  ...  ..  !!=+'*>.*%!%%++++%",
"                 ..   .. ..   .. ..   ...  !=+%**'-=!>==+++%",
"                 ..  ..  ...     ..    ..  !=++%,,+%=!!%+%+=",
"                 ......   .....  ..    ..   =%+%%%++++%%=++ ",
"                 ..   ..      .. ..    ..   !=%%===%%==%++= ",
"                 ..   .. ..   .. ..   ...   !>==!!!!=%+++%  ",
"                 ..   .. ... ... ...  ..     !%%+++++%%%%   ",
"                 ......   .....  ......       !!!!======    ",
"                                                 !!!>       "};
