/* XPM */
static char * dillo_xpm[] = {
"32 32 741 2",
"  	c None",
". 	c #000919",
"+ 	c #000515",
"@ 	c #000A27",
"# 	c #000C25",
"$ 	c #052339",
"% 	c #052037",
"& 	c #0A1D2F",
"* 	c #0D2438",
"= 	c #041936",
"- 	c #000819",
"; 	c #010C05",
"> 	c #052D3A",
", 	c #125E8D",
"' 	c #75C1CB",
") 	c #7ECAD0",
"! 	c #86CED5",
"~ 	c #B1E2D6",
"{ 	c #94CFE3",
"] 	c #A4D7EC",
"^ 	c #E4F3FA",
"/ 	c #F6FBFD",
"( 	c #3880B1",
"_ 	c #00133E",
": 	c #000511",
"< 	c #0B2721",
"[ 	c #103817",
"} 	c #4B933D",
"| 	c #AAE0BA",
"1 	c #A3DDC8",
"2 	c #A7E4CC",
"3 	c #96DDD1",
"4 	c #A3E4D6",
"5 	c #A4E4DB",
"6 	c #99DDDE",
"7 	c #A1DEDD",
"8 	c #8AD1E9",
"9 	c #DBF1F9",
"0 	c #D2EAF5",
"a 	c #64B8DB",
"b 	c #3793BA",
"c 	c #03396F",
"d 	c #000D16",
"e 	c #062237",
"f 	c #3E8598",
"g 	c #C3D9BD",
"h 	c #E5F1CA",
"i 	c #C2EEC5",
"j 	c #BFF0CA",
"k 	c #CDF9D3",
"l 	c #BAF5D1",
"m 	c #9BE4DE",
"n 	c #89D9E6",
"o 	c #93DFE5",
"p 	c #B4ECE1",
"q 	c #71CDE9",
"r 	c #65C5E8",
"s 	c #9DD8EF",
"t 	c #6FC2E3",
"u 	c #50B1DA",
"v 	c #4EABD5",
"w 	c #1874A7",
"x 	c #01141B",
"y 	c #031E38",
"z 	c #256E95",
"A 	c #4992B6",
"B 	c #C7DDC2",
"C 	c #E0F2CA",
"D 	c #C9F2C9",
"E 	c #C9F4CE",
"F 	c #D0FAD5",
"G 	c #B1F0D7",
"H 	c #6ACAEA",
"I 	c #6CCCED",
"J 	c #99E3E4",
"K 	c #BDF4DF",
"L 	c #A8E7E2",
"M 	c #75CFE6",
"N 	c #54BEE6",
"O 	c #51BAE2",
"P 	c #4DB4DD",
"Q 	c #4CAED8",
"R 	c #49A6D1",
"S 	c #3597C1",
"T 	c #043F63",
"U 	c #031528",
"V 	c #2C7096",
"W 	c #478EB1",
"X 	c #63A5B9",
"Y 	c #DDE9C1",
"Z 	c #E6F2CC",
"` 	c #DDF7D0",
" .	c #D4F9D0",
"..	c #BBF4D0",
"+.	c #BAF7D1",
"@.	c #A9EFD7",
"#.	c #87DEE0",
"$.	c #8EDFE3",
"%.	c #DCFDDE",
"&.	c #ECFEDF",
"*.	c #D3F9DA",
"=.	c #88DADC",
"-.	c #4EBCE0",
";.	c #45B3DD",
">.	c #46AFD9",
",.	c #479CC3",
"'.	c #4D84A2",
").	c #386D8E",
"!.	c #314450",
"~.	c #05121E",
"{.	c #195175",
"].	c #3E7FA2",
"^.	c #448DB2",
"/.	c #68A8B4",
"(.	c #D3E2B9",
"_.	c #E5F0C8",
":.	c #E1F8D0",
"<.	c #D9F9D0",
"[.	c #B1EECC",
"}.	c #C4F7D1",
"|.	c #C1F9D2",
"1.	c #ADF4D0",
"2.	c #A5EDD7",
"3.	c #D6FDD9",
"4.	c #D8F9DA",
"5.	c #ABE9D8",
"6.	c #78D4D9",
"7.	c #72D0D6",
"8.	c #3FB0DB",
"9.	c #3EADD8",
"0.	c #3D647C",
"a.	c #622427",
"b.	c #7B1D1E",
"c.	c #8A1515",
"d.	c #901414",
"e.	c #931414",
"f.	c #690D0D",
"g.	c #06233C",
"h.	c #3B7595",
"i.	c #4082A4",
"j.	c #448EAC",
"k.	c #94C4AE",
"l.	c #CFE4B5",
"m.	c #E3ECC1",
"n.	c #E8F8D0",
"o.	c #DAF7CC",
"p.	c #BEF5C6",
"q.	c #C0F4CA",
"r.	c #93DED1",
"s.	c #A6E8D1",
"t.	c #BCF7CF",
"u.	c #C4F9CF",
"v.	c #BEF6CD",
"w.	c #8EE3CD",
"x.	c #4EC0D8",
"y.	c #3EB5D9",
"z.	c #33ABD8",
"A.	c #33A8D5",
"B.	c #308DB5",
"C.	c #2A6D8C",
"D.	c #2E495E",
"E.	c #6B0F13",
"F.	c #9E0000",
"G.	c #9C0000",
"H.	c #4F0000",
"I.	c #050E1A",
"J.	c #164262",
"K.	c #3E7897",
"L.	c #397DA0",
"M.	c #639CA6",
"N.	c #CCDCB1",
"O.	c #DBE4B5",
"P.	c #D8E1B1",
"Q.	c #EDF6CD",
"R.	c #D9F6C9",
"S.	c #BCF3C0",
"T.	c #B2F2C0",
"U.	c #92E2C7",
"V.	c #7DD8CA",
"W.	c #9EEAC8",
"X.	c #ABF0C8",
"Y.	c #98E7C7",
"Z.	c #50C2D2",
"`.	c #34B2D6",
" +	c #27A8D7",
".+	c #29A5D5",
"++	c #2BA3D2",
"@+	c #2D98C6",
"#+	c #2B85AC",
"$+	c #296A8A",
"%+	c #5E1C25",
"&+	c #A10000",
"*+	c #980000",
"=+	c #03101E",
"-+	c #305D7C",
";+	c #377292",
">+	c #31779B",
",+	c #70A498",
"'+	c #C5D4A0",
")+	c #D1DBAA",
"!+	c #CAD7A3",
"~+	c #E5EDC0",
"{+	c #DAF4C5",
"]+	c #ABEEB6",
"^+	c #9BECB4",
"/+	c #90E7B9",
"(+	c #99EABE",
"_+	c #ADEDC6",
":+	c #A9EEC3",
"<+	c #48BFD0",
"[+	c #20A9D7",
"}+	c #1EA5D6",
"|+	c #1FA3D4",
"1+	c #20A0D1",
"2+	c #219ECF",
"3+	c #2597C8",
"4+	c #2586B1",
"5+	c #22516A",
"6+	c #721115",
"7+	c #A50000",
"8+	c #880201",
"9+	c #141A1F",
"0+	c #081E32",
"a+	c #335F7C",
"b+	c #316D8D",
"c+	c #2B7195",
"d+	c #689E92",
"e+	c #B9D09B",
"f+	c #D3DCA6",
"g+	c #C3D19C",
"h+	c #E2EDBD",
"i+	c #C6EEB9",
"j+	c #9DE9AE",
"k+	c #94E8AF",
"l+	c #8FE8B1",
"m+	c #A6F0B9",
"n+	c #BBF3C3",
"o+	c #70D7C3",
"p+	c #1DA8D7",
"q+	c #1DA7D7",
"r+	c #1CA5D6",
"s+	c #1BA2D4",
"t+	c #1C9ED0",
"u+	c #1C9BCE",
"v+	c #2196CA",
"w+	c #2490C2",
"x+	c #2F5C7B",
"y+	c #880C0F",
"z+	c #A80000",
"A+	c #6F0809",
"B+	c #254C37",
"C+	c #121A22",
"D+	c #1C3B53",
"E+	c #315C78",
"F+	c #2A6585",
"G+	c #24698E",
"H+	c #3B7F92",
"I+	c #83BA8D",
"J+	c #CBD9A3",
"K+	c #D6DFAA",
"L+	c #DBEEBE",
"M+	c #A7E6AC",
"N+	c #86DFA4",
"O+	c #7BDCA6",
"P+	c #91E7B0",
"Q+	c #B3F0BC",
"R+	c #8FE7BB",
"S+	c #52C8C9",
"T+	c #23ACDA",
"U+	c #24ACDA",
"V+	c #21A8D8",
"W+	c #1DA4D5",
"X+	c #1A9DD0",
"Y+	c #1A98CC",
"Z+	c #1A92C7",
"`+	c #1D8FC4",
" @	c #3F4C67",
".@	c #9F0505",
"+@	c #481927",
"@@	c #276360",
"#@	c #0E1821",
"$@	c #1D3B51",
"%@	c #2D5671",
"&@	c #255D7E",
"*@	c #1F6388",
"=@	c #2A728F",
"-@	c #5F9F8D",
";@	c #CBDBA6",
">@	c #DCE6B4",
",@	c #C8E8B2",
"'@	c #93DEA4",
")@	c #6ED59D",
"!@	c #6ED7A2",
"~@	c #7FE1AC",
"{@	c #8BE7B3",
"]@	c #54C8C8",
"^@	c #2FB2DA",
"/@	c #2FB2DE",
"(@	c #2AADDC",
"_@	c #23A8D8",
":@	c #1B9BCC",
"<@	c #1996C9",
"[@	c #1890C6",
"}@	c #198CC2",
"|@	c #503041",
"1@	c #AF0303",
"2@	c #A20101",
"3@	c #342A40",
"4@	c #115469",
"5@	c #0E161C",
"6@	c #1C3749",
"7@	c #264C65",
"8@	c #205575",
"9@	c #1A5C80",
"0@	c #1C688B",
"a@	c #3B888A",
"b@	c #9BC08F",
"c@	c #D3DEAB",
"d@	c #A5DCA3",
"e@	c #65C89C",
"f@	c #33A9AF",
"g@	c #36AFB6",
"h@	c #2CABC7",
"i@	c #48BFC5",
"j@	c #50C6CF",
"k@	c #37B6E0",
"l@	c #3BB3DB",
"m@	c #4199BA",
"n@	c #56677B",
"o@	c #674752",
"p@	c #6E3A41",
"q@	c #663B44",
"r@	c #534C60",
"s@	c #376181",
"t@	c #7A161B",
"u@	c #B90202",
"v@	c #900304",
"w@	c #243852",
"x@	c #094867",
"y@	c #0C1114",
"z@	c #1A3040",
"A@	c #21445C",
"B@	c #1C4F6E",
"C@	c #17577A",
"D@	c #156188",
"E@	c #2A798B",
"F@	c #619E8D",
"G@	c #C6D5A2",
"H@	c #A7D8A2",
"I@	c #3EAEA8",
"J@	c #0F91BC",
"K@	c #1499C4",
"L@	c #1CA4CF",
"M@	c #29AED5",
"N@	c #5BCDD0",
"O@	c #42B9DA",
"P@	c #546E80",
"Q@	c #933A40",
"R@	c #9F1414",
"S@	c #691416",
"T@	c #412831",
"U@	c #44222B",
"V@	c #7F1213",
"W@	c #A31B1D",
"X@	c #B00C0D",
"Y@	c #BD0000",
"Z@	c #7F080B",
"`@	c #153B56",
" #	c #084063",
".#	c #0B1010",
"+#	c #152734",
"@#	c #1E3C4F",
"##	c #174764",
"$#	c #145274",
"%#	c #115E85",
"&#	c #10688E",
"*#	c #277F96",
"=#	c #9FBF97",
"-#	c #AFD3A4",
";#	c #38A6AF",
">#	c #1097BF",
",#	c #16A1C6",
"'#	c #22ADD0",
")#	c #34B7D6",
"!#	c #49AEC1",
"~#	c #6E5861",
"{#	c #C11414",
"]#	c #9D0304",
"^#	c #333641",
"/#	c #20677E",
"(#	c #16647E",
"_#	c #0F5E79",
":#	c #153D51",
"<#	c #7A0A0D",
"[#	c #C30000",
"}#	c #C20000",
"|#	c #580D13",
"1#	c #0D3D58",
"2#	c #073D5E",
"3#	c #11222D",
"4#	c #183647",
"5#	c #14425D",
"6#	c #114E6E",
"7#	c #0F5D81",
"8#	c #0C678D",
"9#	c #197A98",
"0#	c #82B59C",
"a#	c #AFD2A3",
"b#	c #5AB6B0",
"c#	c #109CC1",
"d#	c #38B9BE",
"e#	c #3EC1CA",
"f#	c #31BBD7",
"g#	c #675B60",
"h#	c #BC1818",
"i#	c #B00201",
"j#	c #5D2C28",
"k#	c #285F69",
"l#	c #1B5868",
"m#	c #135C71",
"n#	c #0F627D",
"o#	c #0C5B79",
"p#	c #541C25",
"q#	c #C80000",
"r#	c #C50404",
"s#	c #35141B",
"t#	c #0C3E5A",
"u#	c #063B5B",
"v#	c #0B100F",
"w#	c #0B1A26",
"x#	c #122F3F",
"y#	c #124056",
"z#	c #0F4C6A",
"A#	c #0E5E7F",
"B#	c #0D6B8D",
"C#	c #0C789D",
"D#	c #1286A5",
"E#	c #65B5AD",
"F#	c #80CBB2",
"G#	c #65CDBA",
"H#	c #7DDEBC",
"I#	c #3CC4D0",
"J#	c #318193",
"K#	c #C01414",
"L#	c #CD0101",
"M#	c #6B1114",
"N#	c #20454C",
"O#	c #154954",
"P#	c #155D6D",
"Q#	c #167D97",
"R#	c #1388AA",
"S#	c #0F7699",
"T#	c #77232D",
"U#	c #D00B0B",
"V#	c #C63434",
"W#	c #131C26",
"X#	c #073E5B",
"Y#	c #073857",
"Z#	c #091720",
"`#	c #0F2838",
" $	c #0F3B50",
".$	c #0D4B66",
"+$	c #0D5F7F",
"@$	c #0D6F8F",
"#$	c #0B7F9F",
"$$	c #0A8AA9",
"%$	c #1099B6",
"&$	c #21A9BD",
"*$	c #3DBDC4",
"=$	c #85DAC6",
"-$	c #84CCBE",
";$	c #8D4D4B",
">$	c #D40303",
",$	c #C90000",
"'$	c #2F2024",
")$	c #0F3C43",
"!$	c #125663",
"~$	c #167C92",
"{$	c #179DBB",
"]$	c #13A0C4",
"^$	c #197898",
"/$	c #9A181E",
"($	c #E15252",
"_$	c #B05F5F",
":$	c #08222F",
"<$	c #073F5C",
"[$	c #063451",
"}$	c #0C1211",
"|$	c #081118",
"1$	c #091F2F",
"2$	c #0B3247",
"3$	c #0A455D",
"4$	c #0B5E7A",
"5$	c #0A708E",
"6$	c #0B83A2",
"7$	c #0B91AE",
"8$	c #0C9FBB",
"9$	c #0DAAC4",
"0$	c #0CB4CE",
"a$	c #0DBCD4",
"b$	c #378F98",
"c$	c #B72626",
"d$	c #E02E2E",
"e$	c #AD1E1E",
"f$	c #132A2B",
"g$	c #244845",
"h$	c #528F85",
"i$	c #59BBB1",
"j$	c #6CD5C1",
"k$	c #3BBDC3",
"l$	c #36687C",
"m$	c #C23A3B",
"n$	c #F0ABAB",
"o$	c #7C4141",
"p$	c #052B3C",
"q$	c #074361",
"r$	c #032B3F",
"s$	c #080F14",
"t$	c #071A27",
"u$	c #092A3E",
"v$	c #083C53",
"w$	c #095971",
"x$	c #0A6E88",
"y$	c #0B84A0",
"z$	c #0C93AF",
"A$	c #0CA2BD",
"B$	c #0BADC6",
"C$	c #0CB8D0",
"D$	c #0DC0D6",
"E$	c #437580",
"F$	c #D97070",
"G$	c #F19C9C",
"H$	c #944646",
"I$	c #1C312D",
"J$	c #3E6057",
"K$	c #60B29C",
"L$	c #9ADDC1",
"M$	c #B7ECCA",
"N$	c #97E0BD",
"O$	c #666B63",
"P$	c #E27E7E",
"Q$	c #E58C8C",
"R$	c #53282A",
"S$	c #043447",
"T$	c #064360",
"U$	c #0B1213",
"V$	c #07161F",
"W$	c #062134",
"X$	c #062E46",
"Y$	c #074863",
"Z$	c #07647A",
"`$	c #0A7E96",
" %	c #0B8FA8",
".%	c #0BA1B9",
"+%	c #0AADC5",
"@%	c #0BB8CE",
"#%	c #0CBFD4",
"$%	c #625D64",
"%%	c #EB8181",
"&%	c #EF8686",
"*%	c #702D2C",
"=%	c #2C3D37",
"-%	c #4C8071",
";%	c #68CAB0",
">%	c #AEE5C7",
",%	c #B9E7C8",
"'%	c #8ED7B3",
")%	c #904F47",
"!%	c #EE7575",
"~%	c #CA5858",
"{%	c #34251F",
"]%	c #215B4E",
"^%	c #0A384B",
"/%	c #091219",
"(%	c #051D2E",
"_%	c #04263B",
":%	c #043754",
"<%	c #05506B",
"[%	c #077388",
"}%	c #08869C",
"|%	c #099AB1",
"1%	c #0AA6BD",
"2%	c #0AB3C8",
"3%	c #0BBACE",
"4%	c #6A4E54",
"5%	c #ED6868",
"6%	c #ED6565",
"7%	c #6C2322",
"8%	c #2D4B42",
"9%	c #519482",
"0%	c #6DD1B6",
"a%	c #9EDFC2",
"b%	c #93D5B9",
"c%	c #55B094",
"d%	c #B13836",
"e%	c #F15C5C",
"f%	c #AE3736",
"g%	c #2C3426",
"h%	c #1E5653",
"i%	c #090F11",
"j%	c #071925",
"k%	c #042034",
"l%	c #042943",
"m%	c #033555",
"n%	c #045270",
"o%	c #056E84",
"p%	c #06879A",
"q%	c #0895A9",
"r%	c #0BA3B7",
"s%	c #0DABBE",
"t%	c #60464C",
"u%	c #E94545",
"v%	c #F04545",
"w%	c #781D1C",
"x%	c #21544A",
"y%	c #359683",
"z%	c #4EC2A9",
"A%	c #49BEA6",
"B%	c #2FA993",
"C%	c #276F5F",
"D%	c #DD2D2D",
"E%	c #F23A3A",
"F%	c #8B211D",
"G%	c #26493D",
"H%	c #053144",
"I%	c #091218",
"J%	c #071D2E",
"K%	c #04253D",
"L%	c #022A46",
"M%	c #023859",
"N%	c #034B6D",
"O%	c #046882",
"P%	c #057D91",
"Q%	c #068EA0",
"R%	c #0796A8",
"S%	c #464A52",
"T%	c #DF2B2B",
"U%	c #F43131",
"V%	c #991A1A",
"W%	c #205147",
"X%	c #298C7A",
"Y%	c #29A791",
"Z%	c #20A08B",
"`%	c #198774",
" &	c #604A43",
".&	c #F12727",
"+&	c #F32424",
"@&	c #721F19",
"#&	c #163B3C",
"$&	c #09161C",
"%&	c #062135",
"&&	c #042740",
"*&	c #032C48",
"=&	c #023050",
"-&	c #023E61",
";&	c #024B6E",
">&	c #035D7C",
",&	c #036B85",
"'&	c #1A4F5E",
")&	c #AA1A1C",
"!&	c #F71C1C",
"~&	c #E42020",
"{&	c #3F3A35",
"]&	c #1C6A5C",
"^&	c #177C6B",
"/&	c #286E5F",
"(&	c #763834",
"_&	c #B91D1C",
":&	c #F61414",
"<&	c #F71313",
"[&	c #911B1C",
"}&	c #2E2328",
"|&	c #062437",
"1&	c #052B45",
"2&	c #032D4A",
"3&	c #02314F",
"4&	c #013656",
"5&	c #013D60",
"6&	c #014468",
"7&	c #044060",
"8&	c #491722",
"9&	c #E91010",
"0&	c #F91313",
"a&	c #CC2726",
"b&	c #963E3B",
"c&	c #94433F",
"d&	c #AC2E2C",
"e&	c #6B1D19",
"f&	c #551612",
"g&	c #F10B0B",
"h&	c #F90B0B",
"i&	c #E81717",
"j&	c #CA2525",
"k&	c #B02121",
"l&	c #5B1212",
"m&	c #061117",
"n&	c #072132",
"o&	c #052B43",
"p&	c #04304C",
"q&	c #033250",
"r&	c #023452",
"s&	c #023554",
"t&	c #023555",
"u&	c #022D48",
"v&	c #420E15",
"w&	c #9C080A",
"x&	c #C50707",
"y&	c #910A09",
"z&	c #3D1913",
"A&	c #164230",
"B&	c #1A3929",
"C&	c #700505",
"D&	c #A60505",
"E&	c #A30505",
"F&	c #7B0404",
"G&	c #310505",
"H&	c #051824",
"I&	c #07253C",
"J&	c #063049",
"K&	c #06334F",
"L&	c #053452",
"M&	c #043753",
"N&	c #043752",
"O&	c #042D41",
"P&	c #0E1F2B",
"Q&	c #1F131A",
"R&	c #261818",
"S&	c #222E22",
"T&	c #19402C",
"U&	c #113B29",
"V&	c #0D2C21",
"W&	c #03111A",
"X&	c #051E2E",
"Y&	c #062538",
"Z&	c #05293E",
"`&	c #052C43",
" *	c #052F46",
".*	c #052C42",
"+*	c #0A313D",
"@*	c #223F30",
"#*	c #1B3B24",
"                                                                ",
"                      . + @ # $ % & * = -                       ",
"                  ; > , ' ) ! ~ { ] ^ / ( _ :                   ",
"              < [ } | 1 2 3 4 5 6 7 8 9 0 a b c d               ",
"            e f g h i j k l m n o p q r s t u v w x             ",
"          y z A B C D E F G H I J K L M N O P Q R S T           ",
"        U V W X Y Z `  ...+.@.#.$.%.&.*.=.-.;.>.,.'.).!.        ",
"      ~.{.].^./.(._.:.<.[.}.|.1.2.3.4.5.6.7.8.9.0.a.b.c.d.e.f.  ",
"      g.h.i.j.k.l.m.n.o.p.q.r.s.t.u.v.w.x.y.z.A.B.C.D.E.F.G.H.  ",
"    I.J.K.L.M.N.O.P.Q.R.S.T.U.V.W.X.Y.Z.`. +.+++@+#+$+%+&+*+    ",
"    =+-+;+>+,+'+)+!+~+{+]+^+/+(+_+:+<+[+}+|+1+2+3+4+5+6+7+8+    ",
"  9+0+a+b+c+d+e+f+g+h+i+j+k+l+m+n+o+p+q+r+s+t+u+v+w+x+y+z+A+B+  ",
"  C+D+E+F+G+H+I+J+K+L+M+N+O+P+Q+R+S+T+U+V+W+X+Y+Z+`+ @.@z++@@@  ",
"  #@$@%@&@*@=@-@;@>@,@'@)@!@~@{@]@^@/@/@(@_@:@<@[@}@|@1@2@3@4@  ",
"  5@6@7@8@9@0@a@b@c@d@e@f@g@h@i@j@k@l@m@n@o@p@q@r@s@t@u@v@w@x@  ",
"  y@z@A@B@C@D@E@F@G@H@I@J@K@L@M@N@O@P@Q@R@S@T@U@V@W@X@Y@Z@`@ #  ",
"  .#+#@###$#%#&#*#=#-#;#>#,#'#)#!#~#{#]#^#/#(#_#:#<#[#}#|#1#2#  ",
"  .#3#4#5#6#7#8#9#0#a#b#c#d#e#f#g#h#i#j#k#l#m#n#o#p#q#r#s#t#u#  ",
"  v#w#x#y#z#A#B#C#D#E#F#G#H#I#J#K#L#M#N#O#P#Q#R#S#T#U#V#W#X#Y#  ",
"  v#Z#`# $.$+$@$#$$$%$&$*$=$-$;$>$,$'$)$!$~${$]$^$/$($_$:$<$[$  ",
"  }$|$1$2$3$4$5$6$7$8$9$0$a$b$c$d$e$f$g$h$i$j$k$l$m$n$o$p$q$r$  ",
"    s$t$u$v$w$x$y$z$A$B$C$D$E$F$G$H$I$J$K$L$M$N$O$P$Q$R$S$T$    ",
"    U$V$W$X$Y$Z$`$ %.%+%@%#%$%%%&%*%=%-%;%>%,%'%)%!%~%{%]%^%    ",
"      /%(%_%:%<%[%}%|%1%2%3%4%5%6%7%8%9%0%a%b%c%d%e%f%g%h%      ",
"      i%j%k%l%m%n%o%p%q%r%s%t%u%v%w%x%y%z%A%B%C%D%E%F%G%H%      ",
"        I%J%K%L%M%N%O%P%Q%R%S%T%U%V%W%X%Y%Z%`% &.&+&@&#&        ",
"          $&%&&&*&=&-&;&>&,&'&)&!&~&{&]&^&/&(&_&:&<&[&}&        ",
"            V$|&1&2&3&4&5&6&7&8&9&0&a&b&c&d&e&f&g&h&i&j&k&l&    ",
"              m&n&o&p&q&r&s&t&u&v&w&x&x&y&z&A&B&C&D&E&F&G&      ",
"                  H&I&J&K&L&M&N&O&P&Q&R&S&T&U&V&                ",
"                      W&X&Y&Z&`& *.*+*@*#*                      ",
"                                                                "};
